<svg width="96" height="118" viewBox="0 0 96 118" fill="none" xmlns="http://www.w3.org/2000/svg">
<path d="M94 65C95.1046 65 96 65.8954 96 67V116C96 117.105 95.1046 118 94 118H61C59.8954 118 59 117.105 59 116V67C59 65.8954 59.8954 65 61 65H94ZM89.2939 88.2686C88.1894 88.2686 87.2939 89.164 87.2939 90.2686V111.476C87.2939 112.58 88.1894 113.476 89.2939 113.476H90.7354C91.8399 113.476 92.7354 112.58 92.7354 111.476V90.2686C92.7354 89.164 91.8399 88.2686 90.7354 88.2686H89.2939ZM64.2646 105.073C63.1601 105.073 62.2646 105.969 62.2646 107.073V109.536C62.2646 110.641 63.1601 111.536 64.2646 111.536H65.7061C66.8106 111.536 67.7061 110.641 67.7061 109.536V107.073C67.7061 105.969 66.8106 105.073 65.7061 105.073H64.2646ZM71.8818 105.073C70.7773 105.073 69.8818 105.969 69.8818 107.073V109.536C69.8818 110.641 70.7773 111.536 71.8818 111.536H73.3232C74.4278 111.536 75.3232 110.641 75.3232 109.536V107.073C75.3232 105.969 74.4278 105.073 73.3232 105.073H71.8818ZM79.5 105.073C78.3954 105.073 77.5 105.969 77.5 107.073V109.536C77.5 110.641 78.3954 111.536 79.5 111.536H80.9414C82.046 111.536 82.9414 110.641 82.9414 109.536V107.073C82.9414 105.969 82.046 105.073 80.9414 105.073H79.5ZM38.5 0C43.1944 0 47 3.35786 47 7.5C47 7.66806 46.9918 7.83469 46.9795 8H73C75.7614 8 78 10.2386 78 13V60H73V19C73 16.2386 70.7614 14 68 14H53C53.6278 14.8357 54 15.8743 54 17C54 19.7614 51.7614 22 49 22H28C25.2386 22 23 19.7614 23 17C23 15.8743 23.3722 14.8357 24 14H10C7.23858 14 5 16.2386 5 19V100C5 102.761 7.23858 105 10 105H54V111H5C2.23858 111 1.28856e-07 108.761 0 106V13C1.28855e-07 10.2386 2.23858 8 5 8H30.0205C30.0082 7.83469 30 7.66806 30 7.5C30 3.35786 33.8056 0 38.5 0ZM64.2646 96.0244C63.1601 96.0244 62.2646 96.9198 62.2646 98.0244V100.488C62.2646 101.593 63.1601 102.488 64.2646 102.488H65.7061C66.8106 102.488 67.7061 101.593 67.7061 100.488V98.0244C67.7061 96.9198 66.8106 96.0244 65.7061 96.0244H64.2646ZM71.8818 96.0244C70.7773 96.0244 69.8818 96.9198 69.8818 98.0244V100.488C69.8818 101.593 70.7773 102.488 71.8818 102.488H73.3232C74.4278 102.488 75.3232 101.593 75.3232 100.488V98.0244C75.3232 96.9198 74.4278 96.0244 73.3232 96.0244H71.8818ZM79.5 96.0244C78.3954 96.0244 77.5 96.9198 77.5 98.0244V100.488C77.5 101.593 78.3954 102.488 79.5 102.488H80.9414C82.046 102.488 82.9414 101.593 82.9414 100.488V98.0244C82.9414 96.9198 82.046 96.0244 80.9414 96.0244H79.5ZM51.5 95C52.8807 95 54 96.1193 54 97.5C54 98.8807 52.8807 100 51.5 100H13.5C12.1193 100 11 98.8807 11 97.5C11 96.1193 12.1193 95 13.5 95H51.5ZM64.2646 86.9756C63.1601 86.9756 62.2646 87.871 62.2646 88.9756V91.4395C62.2646 92.544 63.1601 93.4395 64.2646 93.4395H65.7061C66.8106 93.4395 67.7061 92.544 67.7061 91.4395V88.9756C67.7061 87.871 66.8106 86.9756 65.7061 86.9756H64.2646ZM71.8818 86.9756C70.7773 86.9756 69.8818 87.871 69.8818 88.9756V91.4395C69.8818 92.544 70.7773 93.4395 71.8818 93.4395H73.3232C74.4278 93.4395 75.3232 92.544 75.3232 91.4395V88.9756C75.3232 87.871 74.4278 86.9756 73.3232 86.9756H71.8818ZM79.5 86.9756C78.3954 86.9756 77.5 87.871 77.5 88.9756V91.4395C77.5 92.544 78.3954 93.4395 79.5 93.4395H80.9414C82.046 93.4395 82.9414 92.544 82.9414 91.4395V88.9756C82.9414 87.871 82.046 86.9756 80.9414 86.9756H79.5ZM51.5 87C52.8807 87 54 88.1193 54 89.5C54 90.8807 52.8807 92 51.5 92H13.5C12.1193 92 11 90.8807 11 89.5C11 88.1193 12.1193 87 13.5 87H51.5ZM64.2646 71.4639C63.1601 71.4639 62.2646 72.3593 62.2646 73.4639V82.3906C62.2646 83.4952 63.1601 84.3906 64.2646 84.3906H90.7354C91.8399 84.3906 92.7354 83.4952 92.7354 82.3906V73.4639C92.7354 72.3593 91.8399 71.4639 90.7354 71.4639H64.2646ZM51.5 79C52.8807 79 54 80.1193 54 81.5C54 82.8807 52.8807 84 51.5 84H13.5C12.1193 84 11 82.8807 11 81.5C11 80.1193 12.1193 79 13.5 79H51.5ZM30 55H50C50 66.0457 41.0457 75 30 75C18.9543 75 10 66.0457 10 55C10 43.9543 18.9543 35 30 35V55ZM32 33C43.0457 33 52 41.9543 52 53H32V33Z" fill="black"/>
</svg>
