<svg width="50" height="36" viewBox="0 0 50 36" fill="none" xmlns="http://www.w3.org/2000/svg">
<path d="M47.5752 4.81836L40.0615 10.3916C46.0986 13.8181 50 18 50 18C50 18 38.8071 30 25 30C21.776 30 18.6949 29.3448 15.8652 28.3418L5.8125 35.8008L2.2373 30.9814L9.68164 25.458C3.79186 22.0603 0 18 0 18C0 18 11.1929 6 25 6C28.1057 6 31.0787 6.60863 33.8223 7.5498L44 0L47.5752 4.81836ZM28.9492 18.6357C28.6446 20.5427 26.9928 22 25 22C24.8181 22 24.6393 21.9864 24.4639 21.9629L19.8545 25.3828C21.313 26.4012 23.0862 27 25 27C29.9706 27 34 22.9706 34 18C34 17.028 33.8437 16.0927 33.5586 15.2158L28.9492 18.6357ZM25 9C20.0294 9 16 13.0294 16 18C16 18.8701 16.1251 19.711 16.3555 20.5068L21.1367 16.96C21.5945 15.2551 23.1506 14 25 14C25.0415 14 25.0828 14.0017 25.124 14.0029L29.9053 10.4551C28.494 9.5357 26.8099 9 25 9Z" fill="black"/>
</svg>
