<svg width="128" height="126" viewBox="0 0 128 126" fill="none" xmlns="http://www.w3.org/2000/svg">
<path d="M123 0C125.761 0 128 2.23858 128 5V121L127.993 121.257C127.859 123.899 125.675 126 123 126H5L4.74316 125.993C2.18618 125.864 0.136224 123.814 0.00683594 121.257L0 121V5C1.81012e-06 2.32472 2.10111 0.140529 4.74316 0.00683594L5 0H123ZM5 121H123V5H5V121ZM112 66C114.761 66 117 68.2386 117 71V111C117 113.761 114.761 116 112 116H72C69.2386 116 67 113.761 67 111V71C67 68.2386 69.2386 66 72 66H112ZM56 63C58.7614 63 61 65.2386 61 68V108C61 110.761 58.7614 113 56 113H16C13.2386 113 11 110.761 11 108V68C11 65.2386 13.2386 63 16 63H56ZM112 12C114.761 12 117 14.2386 117 17V57C117 59.7614 114.761 62 112 62H72C69.2386 62 67 59.7614 67 57V17C67 14.2386 69.2386 12 72 12H112ZM56 9C58.7614 9 61 11.2386 61 14V54C61 56.7614 58.7614 59 56 59H16C13.2386 59 11 56.7614 11 54V14C11 11.2386 13.2386 9 16 9H56Z" fill="black"/>
</svg>
