<svg width="108" height="101" viewBox="0 0 108 101" fill="none" xmlns="http://www.w3.org/2000/svg">
<path d="M53.2339 0C59.8059 0.000685118 65.1342 5.45781 65.1343 12.1895C65.1343 15.6012 63.7635 18.684 61.5581 20.8965H87.436C89.7971 20.8967 91.8364 22.5487 92.3267 24.8584L107.206 94.9619C107.866 98.0716 105.494 101 102.315 101H5.00146C1.82231 101 -0.549211 98.0718 0.110838 94.9619L14.9897 24.8584C15.4801 22.5486 17.5191 20.8965 19.8804 20.8965H44.9077C42.7022 18.684 41.3325 15.6012 41.3325 12.1895C41.3326 5.45739 46.6613 0 53.2339 0ZM26.1665 61.2842V77.2842H32.0806C33.7054 77.2842 35.1093 76.9664 36.2915 76.3311C37.4737 75.6905 38.3827 74.7711 39.0181 73.5732C39.6587 72.3753 39.979 70.943 39.979 69.2764C39.979 67.6149 39.6587 66.1878 39.0181 64.9951C38.3774 63.7973 37.4659 62.8805 36.2837 62.2451C35.1067 61.6046 33.7028 61.2842 32.0728 61.2842H26.1665ZM42.2368 61.2842V77.2842H53.3931V74.1436H46.104V70.8545H52.8228V67.7061H46.104V64.4248H53.3931V61.2842H42.2368ZM55.8149 61.2842V77.2842H62.9946C64.1768 77.2842 65.1822 77.0914 66.0103 76.7061C66.8383 76.3155 67.4712 75.7841 67.9087 75.1123C68.3462 74.4352 68.5649 73.667 68.5649 72.8076C68.5649 72.0368 68.3983 71.3701 68.0649 70.8076C67.7316 70.24 67.2888 69.7972 66.7368 69.4795C66.19 69.1619 65.5935 68.9873 64.9478 68.9561V68.7998C65.5362 68.6748 66.0546 68.456 66.5024 68.1436C66.9503 67.8311 67.3019 67.4378 67.5571 66.9639C67.8123 66.4847 67.9399 65.9404 67.9399 65.3311C67.9399 64.529 67.7342 63.8232 67.3228 63.2139C66.9165 62.6046 66.307 62.1305 65.4946 61.792C64.6874 61.4535 63.6846 61.2842 62.4868 61.2842H55.8149ZM69.9009 61.2842V64.4248H74.7603V77.2842H78.5728V64.4248H83.4243V61.2842H69.9009ZM62.1431 70.3545C62.6377 70.3545 63.0624 70.4379 63.4165 70.6045C63.7706 70.7659 64.0441 70.9978 64.2368 71.2998C64.4295 71.5967 64.5259 71.9509 64.5259 72.3623C64.5259 72.93 64.3254 73.3727 63.9243 73.6904C63.5285 74.008 62.9111 74.167 62.0728 74.167H59.6821V70.3545H62.1431ZM31.8774 64.5811C32.7939 64.5811 33.565 64.7348 34.1899 65.042C34.8201 65.344 35.2967 65.839 35.6196 66.5264C35.9425 67.2087 36.104 68.1253 36.104 69.2764C36.104 70.4274 35.9425 71.3493 35.6196 72.042C35.3019 72.7294 34.8305 73.2269 34.2056 73.5342C33.5858 73.8362 32.8278 73.9873 31.9321 73.9873H30.0337V64.5811H31.8774ZM61.8853 64.3545C62.5309 64.3545 63.0441 64.5083 63.4243 64.8154C63.8045 65.1227 63.9946 65.5446 63.9946 66.0811C63.9946 66.4561 63.9009 66.7764 63.7134 67.042C63.5311 67.3075 63.2758 67.5108 62.9478 67.6514C62.6197 67.7919 62.2445 67.8623 61.8228 67.8623H59.6821V64.3545H61.8853ZM53.2339 6.96582C50.4171 6.96582 48.1334 9.30433 48.1333 12.1895C48.1333 15.0747 50.417 17.4141 53.2339 17.4141C56.0502 17.4134 58.3335 15.0743 58.3335 12.1895C58.3334 9.30472 56.0502 6.96646 53.2339 6.96582Z" fill="black"/>
</svg>
