<svg width="116" height="96" viewBox="0 0 116 96" fill="none" xmlns="http://www.w3.org/2000/svg">
<path d="M111 76C113.761 76 116 78.2386 116 81V91C116 93.7614 113.761 96 111 96H5C2.23858 96 0 93.7614 0 91V81C0 78.2386 2.23858 76 5 76H111ZM111 38C113.761 38 116 40.2386 116 43V53C116 55.7614 113.761 58 111 58H5C2.23858 58 0 55.7614 0 53V43C0 40.2386 2.23858 38 5 38H111ZM111 0C113.761 5.15405e-07 116 2.23858 116 5V15C116 17.7614 113.761 20 111 20H5C2.23858 20 0 17.7614 0 15V5C0 2.23858 2.23858 4.83192e-08 5 0H111Z" fill="black"/>
</svg>
