<svg width="108" height="108" viewBox="0 0 108 108" fill="none" xmlns="http://www.w3.org/2000/svg">
<path d="M82 106.318C81.9998 106.87 81.5521 107.318 81 107.318H67C66.4479 107.318 66.0002 106.87 66 106.318V44.3181H82V106.318ZM15.8105 106.017C15.8105 106.569 15.3626 107.017 14.8105 107.017H1C0.447734 107.017 1.65076e-05 106.57 0 106.017V66.9948H15.8105V106.017ZM37.9443 106.017C37.9443 106.569 37.4965 107.017 36.9443 107.017H23.1338C22.5817 107.017 22.1339 106.569 22.1338 106.017V53.654H37.9443V106.017ZM60.0781 106.017C60.0781 106.57 59.6304 107.017 59.0781 107.017H45.2686C44.7163 107.017 44.2686 106.57 44.2686 106.017V66.9948H60.0781V106.017ZM105.433 0.106167C106.321 -0.285219 107.315 0.474466 106.942 1.26046L98.1426 19.8103C97.8727 20.3792 97.0249 20.5602 96.459 20.1696L91.1914 16.5319L80.6777 27.4509C81.6422 28.5567 82.2129 29.9219 82.2129 31.4001C82.2126 35.0838 78.6732 38.0699 74.3076 38.07C73.1386 38.07 72.0297 37.8537 71.0312 37.4694L58.2598 50.7321C59.3953 51.887 60.0781 53.3701 60.0781 54.988C60.0781 58.672 56.5387 61.6589 52.1729 61.6589C47.8072 61.6588 44.2686 58.6719 44.2686 54.988C44.2686 54.5709 44.3155 54.1632 44.4023 53.7673L35.6289 46.363C34.1983 47.5704 32.2222 48.3181 30.0391 48.3181C27.8556 48.3181 25.8789 47.5707 24.4482 46.363L14.8486 54.4646C15.4618 55.4125 15.8105 56.5 15.8105 57.656C15.8105 61.3399 12.271 64.3268 7.90527 64.3269C3.53944 64.3269 0 61.3399 0 57.656C0.000151122 53.9721 3.53954 50.9861 7.90527 50.9861C10.5043 50.9861 12.8102 52.0445 14.251 53.6784L23.7373 45.6745C22.7313 44.5554 22.1338 43.1602 22.1338 41.6472C22.1338 37.9632 25.6733 34.9773 30.0391 34.9773C34.4049 34.9773 37.9443 37.9632 37.9443 41.6472C37.9443 43.1602 37.3459 44.5544 36.3398 45.6736L44.7246 52.7497C45.8148 50.1669 48.7377 48.3182 52.1729 48.3181C54.2357 48.3181 56.1138 48.985 57.5215 50.0769L70.0801 37.0349C67.8703 35.8522 66.4025 33.7716 66.4023 31.4001C66.4023 27.7162 69.9418 24.7292 74.3076 24.7292C76.5325 24.7293 78.5419 25.5062 79.9785 26.7546L90.3691 15.9636L83.4834 11.2087C82.8812 10.7929 82.9726 9.99653 83.6572 9.69503L105.433 0.106167Z" fill="black"/>
</svg>
