<svg width="98" height="98" viewBox="0 0 98 98" fill="none" xmlns="http://www.w3.org/2000/svg">
<path d="M71.5195 51.8633C73.8508 51.5251 76.2492 51.5393 78.6338 51.9385C77.4365 54.8332 78.7582 58.1703 81.6367 59.4482C84.5155 60.7259 87.876 59.4669 89.2188 56.6367C91.1146 58.1374 92.7334 59.9074 94.0469 61.8633C93.2798 62.4378 92.644 63.211 92.2275 64.1494C90.9294 67.0753 92.2484 70.4997 95.1729 71.7979C96.0472 72.1859 96.966 72.338 97.8594 72.2852C98.0897 74.3712 98.0388 76.5029 97.6836 78.624C94.7903 77.4274 91.4545 78.7492 90.1768 81.6289C88.899 84.5088 90.1578 87.8689 92.9863 89.2119C91.6522 90.8987 90.1053 92.3668 88.4043 93.5957C87.8441 92.8977 87.1145 92.3188 86.2402 91.9307C83.3156 90.6326 79.8919 91.952 78.5938 94.8779C78.1776 95.8161 78.0316 96.8057 78.1201 97.7598C75.7882 98.098 73.3891 98.085 71.0039 97.6855C72.2012 94.7908 70.8816 91.4546 68.0029 90.1768C65.1242 88.8992 61.7636 90.1581 60.4209 92.9883C58.5246 91.4872 56.9054 89.7163 55.5918 87.7598C56.3589 87.1852 56.9957 86.414 57.4121 85.4756C58.7101 82.5497 57.3923 79.1243 54.4678 77.8262C53.593 77.4379 52.6731 77.2858 51.7793 77.3389C51.5476 75.239 51.6011 73.0921 51.9629 70.957C54.7211 71.7939 57.7341 70.4641 58.9336 67.7607C60.1327 65.0575 59.0977 61.9305 56.627 60.4463C57.9671 58.7456 59.5222 57.2653 61.2344 56.0283C61.7947 56.7269 62.5246 57.306 63.3994 57.6943C66.3241 58.9925 69.7477 57.673 71.0459 54.7471C71.4623 53.8082 71.6086 52.8181 71.5195 51.8633ZM78.3457 66.8652C73.9588 64.9183 68.8242 66.8983 66.877 71.2871C64.9298 75.6759 66.9072 80.8124 71.2939 82.7598C75.6807 84.7067 80.8163 82.7275 82.7637 78.3389C84.711 73.95 82.7327 68.8125 78.3457 66.8652ZM52.1191 0C56.4405 1.11164 60.4963 2.8837 64.1758 5.19922C63.3115 6.74255 62.8174 8.52129 62.8174 10.416C62.8174 16.3214 67.6036 21.1084 73.5078 21.1084C75.2732 21.1084 76.9369 20.6769 78.4043 19.9189C80.3537 23.2641 81.8634 26.8967 82.8516 30.7393C77.0757 30.8865 72.4385 35.6122 72.4385 41.4248C72.4385 44.3542 73.6175 47.0064 75.5254 48.9365C61.3169 49.5589 49.9885 61.276 49.9883 75.6406C49.9883 76.0121 49.9977 76.3822 50.0127 76.75C48.0653 74.1316 44.9508 72.4337 41.4365 72.4336C35.625 72.4336 30.9 77.0714 30.7529 82.8486C26.4313 81.7369 22.375 79.9652 18.6953 77.6494C19.5595 76.1062 20.0546 74.3282 20.0547 72.4336C20.0547 66.5282 15.2685 61.7402 9.36426 61.7402C7.59879 61.7403 5.93426 62.1707 4.4668 62.9287C2.5047 59.5615 0.987548 55.903 0 52.0322C5.27828 51.379 9.36415 46.8809 9.36426 41.4248C9.36426 35.9686 5.27838 31.4697 0 30.8164C0.987664 26.9454 2.50447 23.2864 4.4668 19.9189C5.93441 20.6772 7.59854 21.1083 9.36426 21.1084C15.2684 21.1084 20.0546 16.3214 20.0547 10.416C20.0547 8.5211 19.5597 6.74266 18.6953 5.19922C22.375 2.88348 26.4313 1.11172 30.7529 0C30.8997 5.77745 35.6249 10.416 41.4365 10.416C47.248 10.4158 51.9724 5.77731 52.1191 0ZM75.0469 69.4688C77.9961 69.5971 80.2833 72.0923 80.1553 75.042C80.027 77.9918 77.5321 80.2795 74.583 80.1514C71.6338 80.0231 69.3465 77.5279 69.4746 74.5781C69.6029 71.6283 72.0977 69.3406 75.0469 69.4688ZM41.4365 25.3857C32.5802 25.3857 25.4004 32.5667 25.4004 41.4248C25.4005 50.2828 32.5803 57.4639 41.4365 57.4639C50.2925 57.4636 57.4716 50.2826 57.4717 41.4248C57.4717 32.5669 50.2926 25.386 41.4365 25.3857ZM41.4365 30.7324C47.3405 30.7327 52.127 35.5196 52.127 41.4248C52.1268 47.3299 47.3405 52.117 41.4365 52.1172C35.5324 52.1172 30.7462 47.3301 30.7461 41.4248C30.7461 35.5194 35.5323 30.7324 41.4365 30.7324Z" fill="black"/>
</svg>
