<svg width="112" height="103" viewBox="0 0 112 103" fill="none" xmlns="http://www.w3.org/2000/svg">
<path d="M112 90.9443L94.6641 103V96.5127H68.8525V95.4375C76.1662 93.7689 82.7823 90.2432 88.1924 85.375H94.6641V78.8877L112 90.9443ZM56 12.0654C77.8017 12.0655 95.4756 29.7255 95.4756 51.5098C95.4752 73.2937 77.8015 90.9531 56 90.9531C34.1986 90.953 16.5248 73.2936 16.5244 51.5098C16.5244 29.7256 34.1984 12.0656 56 12.0654ZM56 23.2021C40.2826 23.2023 27.541 35.8764 27.541 51.5098C27.5414 67.1428 40.2828 79.8163 56 79.8164C71.7173 79.8164 84.4586 67.1428 84.459 51.5098C84.459 35.8764 71.7175 23.2022 56 23.2021ZM58.1055 36.7754C64.5678 37.3233 69.6249 40.1985 70.3271 43.7881H66.2324C65.4727 41.0379 61.1191 38.9287 55.8613 38.9287C50.0687 38.9287 45.3727 41.4885 45.3721 44.6455C45.3723 47.8027 50.0684 50.3623 55.8613 50.3623C56.0619 50.3623 56.2612 50.3576 56.459 50.3516V50.4141C56.6571 50.4097 56.8566 50.4053 57.0566 50.4053C65.0918 50.4053 71.6058 53.9728 71.6064 58.3721C71.6059 62.5783 65.6511 66.0201 58.1055 66.3145V74.2471H54.4834V66.2119C48.1792 65.5957 43.281 62.7579 42.5908 59.2295H46.6855C47.4452 61.9797 51.799 64.0887 57.0566 64.0889C62.8494 64.0889 67.5454 61.5292 67.5459 58.3721C67.5452 55.215 62.8493 52.6553 57.0566 52.6553C56.8562 52.6553 56.6567 52.66 56.459 52.666V52.6035C56.2608 52.6079 56.0615 52.6123 55.8613 52.6123C47.8259 52.6123 41.3117 49.045 41.3115 44.6455C41.3121 40.5007 47.0945 37.0959 54.4834 36.7158V28.7705H58.1055V36.7754ZM17.3359 6.4873H43.1475V7.5625C35.8338 9.2311 29.2177 12.7568 23.8076 17.625H17.3359V24.1123L0 12.0566L17.3359 0V6.4873Z" fill="black"/>
</svg>
